# xmcd
#
# Track frame offsets: 
#        150
#        11018
#        30212
#
# Disc length: 595 seconds
#
# Revision: 0
# Processed by: cddbd v1.5.2PL0 Copyright (c) Steve Scherf et al.
# Submitted via: ExactAudioCopy v0.99pb3
#
DISCID=13025103
DTITLE=Fosca - Secret Crush On Third Trombone
DYEAR=2002
DGENRE=Shinkansen
TTITLE0=Secret Crush On Third Trombone
TTITLE1=Diary Of An Antibody: Entries 1-22
TTITLE2=Diary Of An Antibody: Entries 23-30
EXTD=
EXTT0=
EXTT1=
EXTT2=
PLAYORDER=
